<svg width="24" height="24" viewBox="0 0 24 24" fill="none" xmlns="http://www.w3.org/2000/svg">
<path d="M13.4297 9.86719C12.8883 9.86719 12.4688 10.2867 12.4688 10.8047C12.4688 11.3227 12.8883 11.7422 13.4297 11.7422C13.9242 11.7422 14.3438 11.3227 14.3438 10.8047C14.3438 10.2867 13.9242 9.86719 13.4297 9.86719ZM6.86719 9.86719C6.32578 9.86719 5.90625 10.2867 5.90625 10.8047C5.90625 11.3227 6.32578 11.7422 6.86719 11.7422C7.36172 11.7422 7.78125 11.3227 7.78125 10.8047C7.78125 10.2867 7.36172 9.86719 6.86719 9.86719Z" fill="white"/>
<path d="M20.9531 8.08601C19.8258 6.53913 18.2508 5.50554 16.5234 5.03913V5.04148C16.1227 4.59617 15.6703 4.18601 15.1641 3.82038C11.3273 1.03132 5.94141 1.8821 3.14062 5.71882C0.883594 8.83601 0.979688 13.029 3.28125 16.0079L3.3 19.1157C3.3 19.1907 3.31172 19.2657 3.33516 19.336C3.45938 19.7321 3.88125 19.9501 4.275 19.8259L7.24219 18.8907C8.02734 19.1696 8.83828 19.329 9.64453 19.3735L9.63281 19.3829C11.7211 20.904 14.4586 21.361 16.9688 20.5313L19.9477 21.5016C20.0227 21.5251 20.1 21.5391 20.1797 21.5391C20.5945 21.5391 20.9297 21.204 20.9297 20.7891V17.6485C22.9945 14.8454 23.0484 10.9712 20.9531 8.08601ZM7.57031 17.2266L7.28906 17.1094L4.96875 17.836L4.94531 15.3985L4.75781 15.1876C2.775 12.7688 2.64375 9.28367 4.5 6.72663C6.75938 3.6282 11.0906 2.94382 14.1797 5.17976C17.2781 7.4321 17.9648 11.7563 15.7266 14.836C13.8492 17.4118 10.4883 18.3634 7.57031 17.2266ZM19.4062 16.8282L19.2188 17.0626L19.2422 19.5001L16.9453 18.7266L16.6641 18.8438C15.3516 19.3313 13.9523 19.3712 12.6562 19.0079L12.6516 19.0055C14.3836 18.4735 15.9539 17.3954 17.0859 15.8438C18.8766 13.3759 19.1672 10.2751 18.1266 7.63132L18.1406 7.6407C18.6797 8.02742 19.1742 8.51023 19.5938 9.09382C21.2953 11.4282 21.1992 14.6063 19.4062 16.8282Z" fill="white"/>
<path d="M10.1484 9.86719C9.60703 9.86719 9.1875 10.2867 9.1875 10.8047C9.1875 11.3227 9.60703 11.7422 10.1484 11.7422C10.643 11.7422 11.0625 11.3227 11.0625 10.8047C11.0625 10.2867 10.643 9.86719 10.1484 9.86719Z" fill="white"/>
</svg>
