<svg width="24" height="24" viewBox="0 0 24 24" fill="none" xmlns="http://www.w3.org/2000/svg">
<g id="clarity:coin-bag-line" clip-path="url(#clip0_182_999)">
<path id="Vector" d="M14.4 19.3337C14.4 19.1568 14.3298 18.9873 14.2047 18.8623C14.0797 18.7372 13.9101 18.667 13.7333 18.667H9.73333C9.55652 18.667 9.38695 18.7372 9.26193 18.8623C9.1369 18.9873 9.06667 19.1568 9.06667 19.3337C9.06667 19.5105 9.1369 19.68 9.26193 19.8051C9.38695 19.9301 9.55652 20.0003 9.73333 20.0003H13.7333C13.9101 20.0003 14.0797 19.9301 14.2047 19.8051C14.3298 19.68 14.4 19.5105 14.4 19.3337Z" fill="#222222"/>
<path id="Vector_2" d="M15.0267 16H11.0267C10.8499 16 10.6803 16.0702 10.5553 16.1953C10.4302 16.3203 10.36 16.4899 10.36 16.6667C10.36 16.8435 10.4302 17.013 10.5553 17.1381C10.6803 17.2631 10.8499 17.3333 11.0267 17.3333H15.0267C15.2035 17.3333 15.373 17.2631 15.4981 17.1381C15.6231 17.013 15.6933 16.8435 15.6933 16.6667C15.6933 16.4899 15.6231 16.3203 15.4981 16.1953C15.373 16.0702 15.2035 16 15.0267 16Z" fill="#222222"/>
<path id="Vector_3" d="M14.6667 21.333H10.6667C10.4899 21.333 10.3203 21.4032 10.1953 21.5283C10.0702 21.6533 10 21.8229 10 21.9997C10 22.1765 10.0702 22.3461 10.1953 22.4711C10.3203 22.5961 10.4899 22.6663 10.6667 22.6663H14.6667C14.8435 22.6663 15.013 22.5961 15.1381 22.4711C15.2631 22.3461 15.3333 22.1765 15.3333 21.9997C15.3333 21.8229 15.2631 21.6533 15.1381 21.5283C15.013 21.4032 14.8435 21.333 14.6667 21.333Z" fill="#222222"/>
<path id="Vector_4" d="M21.8 21.333H17.1333C16.9565 21.333 16.787 21.4032 16.6619 21.5283C16.5369 21.6533 16.4667 21.8229 16.4667 21.9997C16.4667 22.1765 16.5369 22.3461 16.6619 22.4711C16.787 22.5961 16.9565 22.6663 17.1333 22.6663H21.8C21.9768 22.6663 22.1464 22.5961 22.2714 22.4711C22.3964 22.3461 22.4667 22.1765 22.4667 21.9997C22.4667 21.8229 22.3964 21.6533 22.2714 21.5283C22.1464 21.4032 21.9768 21.333 21.8 21.333Z" fill="#222222"/>
<path id="Vector_5" d="M22.4667 18.667H17.8C17.6232 18.667 17.4536 18.7372 17.3286 18.8623C17.2036 18.9873 17.1333 19.1568 17.1333 19.3337C17.1333 19.5105 17.2036 19.68 17.3286 19.8051C17.4536 19.9301 17.6232 20.0003 17.8 20.0003H22.4667C22.6435 20.0003 22.813 19.9301 22.9381 19.8051C23.0631 19.68 23.1333 19.5105 23.1333 19.3337C23.1333 19.1568 23.0631 18.9873 22.9381 18.8623C22.813 18.7372 22.6435 18.667 22.4667 18.667Z" fill="#222222"/>
<path id="Vector_6" d="M22.4933 17.333C22.2979 14.9856 21.6601 12.6965 20.6133 10.5863C19.6106 8.6795 18.1659 7.04047 16.4 5.80634L18 2.27968C18.0516 2.17428 18.0744 2.05713 18.0662 1.94007C18.058 1.82302 18.0191 1.71019 17.9533 1.61301C17.8926 1.52775 17.8127 1.45798 17.7201 1.40934C17.6274 1.3607 17.5246 1.33455 17.42 1.33301H6.53333C6.42126 1.33273 6.31093 1.36071 6.21253 1.41436C6.11413 1.46802 6.03085 1.54561 5.97038 1.63997C5.90991 1.73433 5.87421 1.84241 5.86656 1.95422C5.85892 2.06603 5.87959 2.17797 5.92667 2.27968L7.56 5.81968C5.80698 7.05496 4.37212 8.68861 3.37333 10.5863C1.94 13.253 1.49333 16.513 1.37333 18.773C1.35368 19.1039 1.40277 19.4352 1.51751 19.7461C1.63225 20.0571 1.81015 20.3409 2.04 20.5797C2.28157 20.8143 2.56761 20.9983 2.8813 21.1208C3.195 21.2433 3.53002 21.3018 3.86667 21.293H8V19.9997H3.81333C3.66246 19.9992 3.51323 19.9683 3.37461 19.9087C3.23599 19.8491 3.11084 19.7621 3.00667 19.653C2.90234 19.5447 2.82176 19.4159 2.7701 19.2747C2.71844 19.1335 2.69684 18.983 2.70666 18.833C2.8 17.093 3.16667 13.7797 4.54667 11.1997C5.51949 9.35108 6.95802 7.78845 8.72 6.66634H9.38667C8.9349 7.29132 8.51868 7.94123 8.14 8.61301C7.75431 9.32783 7.42659 10.0724 7.16 10.8397L8.07333 11.453C8.34317 10.657 8.67531 9.8835 9.06667 9.13968C9.54724 8.27479 10.0933 7.44793 10.7 6.66634H11.3667C11.8139 7.73527 12.1295 8.85459 12.3067 9.99968C12.4515 10.8497 12.5229 11.7107 12.52 12.573L13.5733 11.833C13.544 11.1625 13.4727 10.4946 13.36 9.83301C13.1811 8.7518 12.8953 7.69104 12.5067 6.66634H13.0267L13.6333 5.33301H8.80666L7.57333 2.66634H16.38L14.7133 6.31301C14.999 6.46604 15.2731 6.63984 15.5333 6.83301C17.1668 7.95994 18.5064 9.46187 19.44 11.213C20.3751 13.1331 20.9556 15.2065 21.1533 17.333H22.4933Z" fill="#222222"/>
</g>
<defs>
<clipPath id="clip0_182_999">
<rect width="24" height="24" fill="white"/>
</clipPath>
</defs>
</svg>
