<svg width="24" height="25" viewBox="0 0 24 25" fill="none" xmlns="http://www.w3.org/2000/svg">
<g clip-path="url(#clip0_112_1240)">
<path d="M21.6733 19.5399C21.0305 18.9668 20.4676 18.3098 20 17.5866C19.4895 16.5883 19.1835 15.4981 19.1 14.3799V11.0866C19.1044 9.33033 18.4674 7.63291 17.3085 6.31324C16.1496 4.99357 14.5488 4.1425 12.8067 3.91992V3.05992C12.8067 2.82388 12.7129 2.5975 12.546 2.4306C12.3791 2.26369 12.1527 2.16992 11.9167 2.16992C11.6806 2.16992 11.4543 2.26369 11.2873 2.4306C11.1204 2.5975 11.0267 2.82388 11.0267 3.05992V3.93326C9.30018 4.17187 7.71865 5.02809 6.57503 6.34333C5.4314 7.65856 4.80316 9.34368 4.80667 11.0866V14.3799C4.72318 15.4981 4.41719 16.5883 3.90667 17.5866C3.44726 18.3082 2.89347 18.9651 2.26001 19.5399C2.18889 19.6024 2.1319 19.6793 2.09282 19.7655C2.05374 19.8517 2.03346 19.9453 2.03334 20.0399V20.9466C2.03334 21.1234 2.10358 21.293 2.2286 21.418C2.35363 21.543 2.5232 21.6133 2.70001 21.6133H21.2333C21.4102 21.6133 21.5797 21.543 21.7047 21.418C21.8298 21.293 21.9 21.1234 21.9 20.9466V20.0399C21.8999 19.9453 21.8796 19.8517 21.8405 19.7655C21.8014 19.6793 21.7445 19.6024 21.6733 19.5399ZM3.42001 20.2799C4.04028 19.6807 4.58641 19.0093 5.04667 18.2799C5.68975 17.0742 6.06496 15.7439 6.14667 14.3799V11.0866C6.12023 10.3053 6.25129 9.52664 6.53204 8.79703C6.81278 8.06743 7.23748 7.40178 7.78084 6.83972C8.3242 6.27767 8.9751 5.8307 9.69479 5.52544C10.4145 5.22018 11.1883 5.06286 11.97 5.06286C12.7518 5.06286 13.5255 5.22018 14.2452 5.52544C14.9649 5.8307 15.6158 6.27767 16.1592 6.83972C16.7025 7.40178 17.1272 8.06743 17.408 8.79703C17.6887 9.52664 17.8198 10.3053 17.7933 11.0866V14.3799C17.8751 15.7439 18.2503 17.0742 18.8933 18.2799C19.3536 19.0093 19.8997 19.6807 20.52 20.2799H3.42001Z" fill="#828282"/>
<path d="M12 23.8403C12.42 23.8306 12.823 23.6728 13.1377 23.3946C13.4525 23.1164 13.6588 22.7359 13.72 22.3203H10.2133C10.2763 22.7472 10.4922 23.1367 10.8209 23.4163C11.1495 23.6959 11.5685 23.8465 12 23.8403Z" fill="#828282"/>
<circle cx="18" cy="6.98682" r="4" fill="#E13B3B"/>
</g>
<defs>
<clipPath id="clip0_112_1240">
<rect width="24" height="24" fill="white" transform="translate(0 0.986816)"/>
</clipPath>
</defs>
</svg>
