<svg width="25" height="24" viewBox="0 0 25 24" fill="none" xmlns="http://www.w3.org/2000/svg">
<path d="M13.5 17V19H14.5C14.7652 19 15.0196 19.1054 15.2071 19.2929C15.3946 19.4804 15.5 19.7348 15.5 20H22.5V22H15.5C15.5 22.2652 15.3946 22.5196 15.2071 22.7071C15.0196 22.8946 14.7652 23 14.5 23H10.5C10.2348 23 9.98043 22.8946 9.79289 22.7071C9.60536 22.5196 9.5 22.2652 9.5 22H2.5V20H9.5C9.5 19.7348 9.60536 19.4804 9.79289 19.2929C9.98043 19.1054 10.2348 19 10.5 19H11.5V17H5.5V15.5C5.5 13.57 8.63 12 12.5 12C16.37 12 19.5 13.57 19.5 15.5V17H13.5ZM12.5 3C13.4283 3 14.3185 3.36875 14.9749 4.02513C15.6313 4.6815 16 5.57174 16 6.5C16 7.42826 15.6313 8.3185 14.9749 8.97487C14.3185 9.63125 13.4283 10 12.5 10C11.5717 10 10.6815 9.63125 10.0251 8.97487C9.36875 8.3185 9 7.42826 9 6.5C9 5.57174 9.36875 4.6815 10.0251 4.02513C10.6815 3.36875 11.5717 3 12.5 3Z" fill="white"/>
</svg>
