<svg width="22" height="16" viewBox="0 0 22 16" fill="none" xmlns="http://www.w3.org/2000/svg">
<path d="M20 0.486816H2C1.60218 0.486816 1.22064 0.644852 0.93934 0.926156C0.658035 1.20746 0.5 1.58899 0.5 1.98682V13.9868C0.5 14.3846 0.658035 14.7662 0.93934 15.0475C1.22064 15.3288 1.60218 15.4868 2 15.4868H20C20.3978 15.4868 20.7794 15.3288 21.0607 15.0475C21.342 14.7662 21.5 14.3846 21.5 13.9868V1.98682C21.5 1.58899 21.342 1.20746 21.0607 0.926156C20.7794 0.644852 20.3978 0.486816 20 0.486816ZM18.35 1.98682L11 7.07182L3.65 1.98682H18.35ZM2 13.9868V2.66932L10.5725 8.60182C10.698 8.68891 10.8472 8.73558 11 8.73558C11.1528 8.73558 11.302 8.68891 11.4275 8.60182L20 2.66932V13.9868H2Z" fill="#828282"/>
</svg>
