<svg width="16" height="16" viewBox="0 0 16 16" fill="none" xmlns="http://www.w3.org/2000/svg">
<path d="M7.63801 10.6203L2.32801 5.04729C2.23936 4.9543 2.18991 4.83076 2.18991 4.70229C2.18991 4.57382 2.23936 4.45028 2.32801 4.35729L2.33401 4.35129C2.37698 4.30606 2.42871 4.27004 2.48604 4.24542C2.54337 4.22081 2.60511 4.20812 2.66751 4.20812C2.7299 4.20812 2.79164 4.22081 2.84897 4.24542C2.90631 4.27004 2.95803 4.30606 3.00101 4.35129L8.00101 9.59929L12.999 4.35129C13.042 4.30606 13.0937 4.27004 13.151 4.24542C13.2084 4.22081 13.2701 4.20812 13.3325 4.20812C13.3949 4.20812 13.4566 4.22081 13.514 4.24542C13.5713 4.27004 13.623 4.30606 13.666 4.35129L13.672 4.35729C13.7607 4.45028 13.8101 4.57382 13.8101 4.70229C13.8101 4.83076 13.7607 4.9543 13.672 5.04729L8.36201 10.6203C8.31531 10.6693 8.25915 10.7083 8.19692 10.735C8.13469 10.7616 8.0677 10.7754 8.00001 10.7754C7.93231 10.7754 7.86532 10.7616 7.80309 10.735C7.74087 10.7083 7.6847 10.6693 7.63801 10.6203Z" fill="#6A6A6A"/>
</svg>
