<svg width="16" height="16" viewBox="0 0 16 16" fill="none" xmlns="http://www.w3.org/2000/svg">
<path d="M10.62 8.36245L5.047 13.6725C4.95401 13.7611 4.83047 13.8105 4.702 13.8105C4.57353 13.8105 4.44999 13.7611 4.357 13.6725L4.351 13.6665C4.30577 13.6235 4.26975 13.5718 4.24513 13.5144C4.22052 13.4571 4.20783 13.3953 4.20783 13.333C4.20783 13.2706 4.22052 13.2088 4.24513 13.1515C4.26975 13.0942 4.30577 13.0424 4.351 12.9995L9.599 7.99945L4.351 3.00145C4.30577 2.95848 4.26975 2.90675 4.24513 2.84942C4.22052 2.79209 4.20783 2.73034 4.20783 2.66795C4.20783 2.60556 4.22052 2.54382 4.24513 2.48648C4.26975 2.42915 4.30577 2.37743 4.351 2.33445L4.357 2.32845C4.44999 2.23981 4.57353 2.19036 4.702 2.19036C4.83047 2.19036 4.95401 2.23981 5.047 2.32845L10.62 7.63845C10.669 7.68515 10.708 7.74131 10.7347 7.80354C10.7614 7.86576 10.7751 7.93275 10.7751 8.00045C10.7751 8.06815 10.7614 8.13514 10.7347 8.19737C10.708 8.25959 10.669 8.31575 10.62 8.36245Z" fill="#6A6A6A"/>
</svg>
