<svg width="24" height="24" viewBox="0 0 24 24" fill="none" xmlns="http://www.w3.org/2000/svg">
<rect width="24" height="24" rx="5" fill="#CE8CC1"/>
<path d="M6.375 1.17236C5.60156 1.17236 4.90781 1.33174 4.43953 1.56611C3.97547 1.80049 3.79734 2.06299 3.79734 2.25049C3.79734 2.4333 3.97547 2.70096 4.43953 2.93018C4.90781 3.16455 5.60156 3.32861 6.375 3.32861C7.14844 3.32861 7.84219 3.16455 8.30625 2.93018C8.775 2.70096 8.95312 2.4333 8.95312 2.25049C8.95312 2.06299 8.775 1.80049 8.30625 1.56611C7.84219 1.33174 7.14844 1.17236 6.375 1.17236ZM13.875 2.67236C13.1016 2.67236 12.4078 2.83174 11.9437 3.06611C11.475 3.30049 11.2969 3.56299 11.2969 3.75049C11.2969 3.9333 11.475 4.20096 11.9437 4.43018C12.4078 4.66455 13.1016 4.82814 13.875 4.82814C14.0906 4.82814 14.2969 4.81408 14.4938 4.79064C14.6953 4.5333 14.9813 4.30502 15.3141 4.15314C15.6984 3.97971 16.1438 3.83908 16.4531 3.75049C16.4531 3.56299 16.275 3.30049 15.8063 3.06611C15.3422 2.83174 14.6484 2.67236 13.875 2.67236ZM3.79734 3.53439C3.77859 4.22158 4.52297 4.50189 4.99219 4.64064C5.83125 4.88439 6.91875 4.88439 7.75781 4.64064C8.35781 4.46908 8.94844 4.13814 8.95312 3.53439C8.19844 4.03268 7.09687 4.16674 6.375 4.17189C5.46094 4.09549 4.50094 4.0008 3.79734 3.53439ZM17.625 4.51455C16.8516 4.51455 16.1578 4.67393 15.6937 4.91252C15.225 5.14221 15.0469 5.40939 15.0469 5.59221C15.0469 5.77971 15.225 6.04221 15.6937 6.27658C16.1578 6.51096 16.8516 6.67033 17.625 6.67033C18.3984 6.67033 19.0922 6.51096 19.5562 6.27658C20.025 6.04221 20.2031 5.77971 20.2031 5.59221C20.2031 5.40939 20.025 5.14221 19.5562 4.91252C19.0922 4.67393 18.3984 4.51455 17.625 4.51455ZM11.2969 5.03439V5.14689C11.4328 5.19377 11.5641 5.25002 11.6859 5.31096C12.1078 5.52189 12.4734 5.81721 12.6609 6.18752C13.1391 6.30471 13.6781 6.34689 14.2031 6.31408V5.66252C14.0953 5.66721 13.9875 5.67189 13.875 5.67189C12.9891 5.67189 12.1828 5.49846 11.5641 5.18908C11.4703 5.14221 11.3812 5.09064 11.2969 5.03439ZM3.79734 5.03908C3.78141 5.72346 4.52484 6.00471 4.99219 6.14533C5.31094 6.23439 5.66719 6.29533 6.03281 6.31408C6.12656 6.07033 6.29531 5.85471 6.51094 5.67189C5.91094 5.68596 5.30625 5.61096 4.75781 5.45627C4.39266 5.34846 4.06922 5.21252 3.79734 5.03908ZM9.375 5.67189C8.60156 5.67189 7.90781 5.83596 7.44375 6.06564C6.975 6.30002 6.79688 6.56252 6.79688 6.75002C6.79688 6.93752 6.975 7.20002 7.44375 7.43439C7.90781 7.66877 8.60156 7.82815 9.375 7.82815C10.1484 7.82815 10.8422 7.66877 11.3062 7.43439C11.775 7.20002 11.9531 6.93752 11.9531 6.75002C11.9531 6.56252 11.775 6.30002 11.3062 6.06564C10.8422 5.83596 10.1484 5.67189 9.375 5.67189ZM3.79734 6.53908C3.78141 7.22346 4.52484 7.50471 4.99219 7.64533C5.2875 7.72971 5.61562 7.78596 5.95312 7.80939V7.16252C5.54062 7.13439 5.1375 7.06408 4.75781 6.95627C4.39266 6.84846 4.06922 6.71252 3.79734 6.53908ZM15.0469 6.88127C15.0375 7.57033 15.7688 7.84689 16.2422 7.98752C17.0813 8.23127 18.1687 8.23127 19.0078 7.98752C19.6031 7.81408 20.1984 7.48596 20.2031 6.88127C20.1187 6.93283 20.0297 6.98439 19.9359 7.03127C19.3172 7.34064 18.5109 7.51408 17.625 7.51408C16.7391 7.51408 15.9328 7.34064 15.3141 7.03127C15.2203 6.98439 15.1313 6.93283 15.0469 6.88127ZM12.7969 7.07814V7.72033C13.2375 7.80939 13.7297 7.84221 14.2031 7.81408V7.16721C13.7297 7.19064 13.2516 7.16252 12.7969 7.07814ZM6.79688 8.03439C6.77344 8.31564 6.9 8.54533 7.05469 8.68127C7.25156 8.85002 7.57031 9.02346 7.99219 9.14533C8.83125 9.38439 9.91875 9.38439 10.7578 9.14533C11.1797 9.02346 11.4984 8.85002 11.6953 8.68127C11.925 8.48908 11.9531 8.30158 11.9531 8.03439C11.8687 8.09064 11.7797 8.14221 11.6859 8.18908C11.0672 8.49846 10.2609 8.6719 9.375 8.6719C8.48906 8.6719 7.68281 8.49846 7.06406 8.18908C6.97031 8.14221 6.88125 8.09064 6.79688 8.03439ZM3.79734 8.03908C3.78141 8.72346 4.52484 9.00471 4.99219 9.14533C5.2875 9.22971 5.61562 9.28596 5.95312 9.30939V8.66252C5.54062 8.6344 5.1375 8.56408 4.75781 8.45627C4.39266 8.34846 4.06922 8.21252 3.79734 8.03908ZM15.0469 8.38127C15.0375 9.07033 15.7688 9.34689 16.2422 9.48752C17.0813 9.73127 18.1687 9.73127 19.0078 9.48752C19.6031 9.31408 20.1984 8.98596 20.2031 8.38127C19.9312 8.55471 19.6078 8.69064 19.2422 8.79846C18.225 9.09377 17.025 9.09377 16.0078 8.79846C15.6422 8.69064 15.3188 8.55471 15.0469 8.38127ZM12.7969 8.57815V9.22033C13.2375 9.30939 13.7297 9.34221 14.2031 9.31408V8.66721C13.7297 8.69064 13.2516 8.66252 12.7969 8.57815ZM3.79734 9.53908C3.78141 10.2235 4.52484 10.5047 4.99219 10.6453C5.2875 10.7297 5.61562 10.786 5.95312 10.8094V10.1625C5.54062 10.1344 5.1375 10.0641 4.75781 9.95627C4.39266 9.84846 4.06922 9.71252 3.79734 9.53908ZM6.79688 9.53908C6.77344 9.82033 6.9 10.0453 7.05469 10.1813C7.25156 10.35 7.57031 10.5235 7.99219 10.6453C8.83125 10.8844 9.91875 10.8844 10.7578 10.6453C11.1797 10.5235 11.4984 10.35 11.6953 10.1813C11.925 9.98908 11.9531 9.80627 11.9531 9.53908C11.6812 9.71252 11.3578 9.84846 10.9922 9.95627C9.975 10.2469 8.775 10.2469 7.75781 9.95627C7.39219 9.84846 7.06875 9.71252 6.79688 9.53908ZM15.0469 9.88127C15.0375 10.5703 15.7688 10.8469 16.2422 10.9875C17.0813 11.2313 18.1687 11.2313 19.0078 10.9875C19.6031 10.8141 20.1984 10.486 20.2031 9.88127C19.9312 10.0547 19.6078 10.1906 19.2422 10.2985C18.225 10.5938 17.025 10.5938 16.0078 10.2985C15.6422 10.1906 15.3188 10.0547 15.0469 9.88127ZM12.7969 10.0781V10.7203C13.2375 10.8094 13.7297 10.8422 14.2031 10.8141V10.1672C13.7297 10.1906 13.2516 10.1625 12.7969 10.0781ZM6.79688 11.0391V11.1469C6.93281 11.1938 7.06406 11.25 7.18594 11.311C7.60781 11.5219 7.97344 11.8172 8.16094 12.1875C8.97188 12.3844 9.975 12.3703 10.7578 12.1453C11.1797 12.0235 11.4984 11.85 11.6953 11.6813C11.925 11.4891 11.9531 11.3063 11.9531 11.0391C11.6812 11.2125 11.3578 11.3485 10.9922 11.4563C9.975 11.7469 8.775 11.7469 7.75781 11.4563C7.39219 11.3485 7.06875 11.2125 6.79688 11.0391ZM15.0469 11.3813C15.0375 12.0703 15.7688 12.3469 16.2422 12.4875C17.0813 12.7313 18.1687 12.7313 19.0078 12.4875C19.6031 12.3141 20.1984 11.986 20.2031 11.3813C19.9312 11.5547 19.6078 11.6906 19.2422 11.7985C18.225 12.0938 17.025 12.0938 16.0078 11.7985C15.6422 11.6906 15.3188 11.5547 15.0469 11.3813ZM12.7969 11.5781V12.2203C13.2375 12.3094 13.7297 12.3422 14.2031 12.3141V11.6672C13.7297 11.6906 13.2516 11.6625 12.7969 11.5781ZM4.875 11.6719C4.10203 11.6719 3.40828 11.836 2.93953 12.0656C2.47547 12.3 2.29734 12.5625 2.29734 12.75C2.29734 12.9375 2.47547 13.2 2.93953 13.4344C3.40828 13.6688 4.10203 13.8281 4.875 13.8281C5.64844 13.8281 6.34219 13.6688 6.80625 13.4344C7.275 13.2 7.45312 12.9375 7.45312 12.75C7.45312 12.5625 7.275 12.3 6.80625 12.0656C6.34219 11.836 5.64844 11.6719 4.875 11.6719ZM11.9531 12.5391C11.6812 12.7125 11.3578 12.8485 10.9922 12.9563C10.1484 13.1953 9.18281 13.2375 8.29687 13.0781V13.7203C9.08437 13.8844 10.0172 13.8563 10.7578 13.6453C11.3484 13.4719 11.9484 13.1391 11.9531 12.5391ZM15.0469 12.8813C15.0328 13.5469 15.7359 13.8328 16.2 13.9735C16.4625 13.7625 16.7016 13.6031 16.9828 13.486C16.6453 13.4485 16.3172 13.3875 16.0078 13.2985C15.6422 13.1906 15.3188 13.0547 15.0469 12.8813ZM20.2031 12.8813C20.0719 12.9656 19.9266 13.0406 19.7672 13.111C19.9125 13.125 20.0578 13.1438 20.1937 13.1672C20.2125 13.0735 20.2031 12.9797 20.2031 12.8813ZM12.7969 13.0781V13.7156C13.3078 13.8141 13.7344 13.8375 14.2031 13.8188V13.1672C13.7297 13.1906 13.2516 13.1625 12.7969 13.0781ZM19.125 13.9219C18.3516 13.9219 17.6578 14.086 17.1937 14.3156C16.725 14.55 16.5469 14.8125 16.5469 15C16.5469 15.1875 16.725 15.45 17.1937 15.6844C17.6578 15.9188 18.3516 16.0781 19.125 16.0781C19.8984 16.0781 20.5922 15.9188 21.0562 15.6844C21.525 15.45 21.7031 15.1875 21.7031 15C21.7031 14.8125 21.525 14.55 21.0562 14.3156C20.5922 14.086 19.8984 13.9219 19.125 13.9219ZM2.29734 14.0344C2.28375 14.7281 3.015 15.0047 3.49266 15.1453C4.33172 15.3844 5.41875 15.3844 6.25781 15.1453C6.85313 14.9719 7.44844 14.6391 7.45312 14.0344C7.36875 14.0906 7.27969 14.1422 7.18594 14.1891C6.56719 14.4985 5.76094 14.6719 4.875 14.6719C3.95578 14.5969 3.00563 14.5031 2.29734 14.0344ZM11.9531 14.0391C11.6812 14.2125 11.3578 14.3485 10.9922 14.4563C10.1484 14.6953 9.18281 14.7375 8.29687 14.5781V15.2203C9.08437 15.3844 10.0172 15.3563 10.7578 15.1453C11.3484 14.9719 11.9484 14.6391 11.9531 14.0391ZM15.0469 14.3813C15.0281 14.8641 15.4219 15.136 15.6937 15.2766C15.6937 15.2766 15.6984 15.2813 15.7031 15.2813V14.7C15.4594 14.611 15.2391 14.5031 15.0469 14.3813ZM2.29734 15.5391C2.28141 16.2235 3.02484 16.5047 3.49266 16.6453C4.33172 16.8844 5.41875 16.8844 6.25781 16.6453C6.84844 16.4719 7.44844 16.1391 7.45312 15.5391C7.18125 15.7125 6.85781 15.8485 6.49219 15.9563C5.475 16.2469 4.27547 16.2469 3.25828 15.9563C2.89266 15.8485 2.56922 15.7125 2.29734 15.5391ZM8.29687 16.0781V16.7156C8.52656 16.7672 8.775 16.8 9.03281 16.8188C9.12656 16.5703 9.29531 16.3547 9.51094 16.1719C9.10312 16.1813 8.69062 16.1485 8.29687 16.0781ZM12.375 16.1719C11.6016 16.1719 10.9078 16.336 10.4437 16.5656C9.975 16.8 9.79687 17.0625 9.79687 17.25C9.79687 17.4375 9.975 17.7 10.4437 17.9344C10.9078 18.1688 11.6016 18.3281 12.375 18.3281C13.1484 18.3281 13.8422 18.1688 14.3063 17.9344C14.775 17.7 14.9531 17.4375 14.9531 17.25C14.9531 17.0625 14.775 16.8 14.3063 16.5656C13.8422 16.336 13.1484 16.1719 12.375 16.1719ZM16.5469 16.2844C16.5422 16.9781 17.2594 17.2547 17.7422 17.3953C18.5812 17.6344 19.6687 17.6344 20.5078 17.3953C21.1031 17.2219 21.6984 16.8891 21.7031 16.2844C20.9625 16.7344 19.8422 16.9172 19.125 16.9219C18.2062 16.8469 17.2547 16.7531 16.5469 16.2844ZM2.29734 17.0391C2.28141 17.7235 3.02484 18.0047 3.49266 18.1453C4.33172 18.3844 5.41875 18.3844 6.25781 18.1453C6.84844 17.9719 7.44844 17.6391 7.45312 17.0391C7.18125 17.2125 6.85781 17.3485 6.49219 17.4563C5.475 17.7469 4.27547 17.7469 3.25828 17.4563C2.89266 17.3485 2.56922 17.2125 2.29734 17.0391ZM16.5469 17.7891C16.5375 18.4781 17.2688 18.7547 17.7422 18.8953C18.5812 19.1344 19.6687 19.1344 20.5078 18.8953C21.0984 18.7219 21.6984 18.3891 21.7031 17.7891C21.4312 17.9625 21.1078 18.0985 20.7422 18.2063C19.725 18.4969 18.525 18.4969 17.5078 18.2063C17.1422 18.0985 16.8187 17.9625 16.5469 17.7891ZM9.79687 18.5344C9.77344 18.8156 9.9 19.0453 10.0547 19.1813C10.2516 19.35 10.5703 19.5235 10.9922 19.6453C11.8312 19.8844 12.9187 19.8844 13.7578 19.6453C14.1797 19.5235 14.4984 19.35 14.6953 19.1813C14.8922 19.0125 14.9531 18.8672 14.9531 18.75V18.5344C14.8687 18.5906 14.7797 18.6422 14.6859 18.6891C14.0672 18.9985 13.2609 19.1719 12.375 19.1719C11.4891 19.1719 10.6828 18.9985 10.0641 18.6891C9.97031 18.6422 9.88125 18.5906 9.79687 18.5344ZM2.29734 18.5391C2.28141 19.2235 3.02484 19.5047 3.49266 19.6453C4.33172 19.8844 5.41875 19.8844 6.25781 19.6453C6.84844 19.4719 7.44844 19.1391 7.45312 18.5391C7.18125 18.7125 6.85781 18.8485 6.49219 18.9563C5.475 19.2469 4.27547 19.2469 3.25828 18.9563C2.89266 18.8485 2.56922 18.7125 2.29734 18.5391ZM16.5469 19.2891C16.5375 19.9781 17.2688 20.2547 17.7422 20.3953C18.5812 20.6344 19.6687 20.6344 20.5078 20.3953C21.0984 20.2219 21.6984 19.8891 21.7031 19.2891C21.4312 19.4625 21.1078 19.5985 20.7422 19.7063C19.725 19.9969 18.525 19.9969 17.5078 19.7063C17.1422 19.5985 16.8187 19.4625 16.5469 19.2891ZM2.29734 20.0391C2.28141 20.7235 3.02484 21.0047 3.49266 21.1453C4.33172 21.3844 5.41875 21.3844 6.25781 21.1453C6.84844 20.9719 7.44844 20.6391 7.45312 20.0391C7.18125 20.2125 6.85781 20.3485 6.49219 20.4563C5.475 20.7469 4.27547 20.7469 3.25828 20.4563C2.89266 20.3485 2.56922 20.2125 2.29734 20.0391ZM9.79687 20.0391C9.77812 20.5219 10.1719 20.7938 10.4437 20.9344C10.9078 21.1688 11.6016 21.3281 12.375 21.3281C13.1484 21.3281 13.8422 21.1688 14.3063 20.9344C14.7703 20.6438 14.9531 20.5313 14.9531 20.0391C14.6812 20.2125 14.3578 20.3485 13.9922 20.4563C12.975 20.7469 11.775 20.7469 10.7578 20.4563C10.3922 20.3485 10.0687 20.2125 9.79687 20.0391ZM16.5469 20.7891C16.5281 21.2719 16.9219 21.5438 17.1937 21.6844C17.6578 21.9188 18.3516 22.0781 19.125 22.0781C19.8984 22.0781 20.5922 21.9188 21.0562 21.6844C21.5203 21.3938 21.7031 21.2813 21.7031 20.7891C21.4312 20.9625 21.1078 21.0985 20.7422 21.2063C19.725 21.4969 18.525 21.4969 17.5078 21.2063C17.1422 21.0985 16.8187 20.9625 16.5469 20.7891ZM2.29734 21.5391C2.27672 22.0172 2.66672 22.2938 2.93953 22.4344C3.40828 22.6688 4.10203 22.8281 4.875 22.8281C5.64844 22.8281 6.34219 22.6688 6.80625 22.4344C7.27031 22.1438 7.45312 22.0313 7.45312 21.5391C7.18125 21.7125 6.85781 21.8485 6.49219 21.9563C5.475 22.2469 4.27547 22.2469 3.25828 21.9563C2.89266 21.8485 2.56922 21.7125 2.29734 21.5391Z" fill="white"/>
</svg>
