<svg width="24" height="24" viewBox="0 0 24 24" fill="none" xmlns="http://www.w3.org/2000/svg">
<rect width="24" height="24" rx="5" fill="#ABA5E5"/>
<path d="M20.9595 11.5828C20.9865 11.8423 21 12.1138 21 12.4003C21 14.3458 20.322 15.6538 19.665 16.4728C19.3997 16.8054 19.0961 17.1055 18.7605 17.3668C18.647 17.4543 18.5289 17.5354 18.4065 17.6098L18.393 17.6173C18.2741 17.6817 18.1748 17.777 18.1056 17.8932C18.0364 18.0094 17.9999 18.1421 18 18.2773V20.2498C18 20.4488 17.921 20.6395 17.7803 20.7802C17.6397 20.9208 17.4489 20.9998 17.25 20.9998H16.5C16.5 20.602 16.342 20.2205 16.0607 19.9392C15.7794 19.6579 15.3978 19.4998 15 19.4998H12C11.6022 19.4998 11.2206 19.6579 10.9393 19.9392C10.658 20.2205 10.5 20.602 10.5 20.9998H9.75C9.55109 20.9998 9.36032 20.9208 9.21967 20.7802C9.07902 20.6395 9 20.4488 9 20.2498V19.3453C9.00019 19.1593 8.93121 18.9798 8.80647 18.8418C8.68173 18.7037 8.51013 18.617 8.325 18.5983C8.08733 18.5467 7.85449 18.475 7.629 18.3838C7.03088 18.1425 6.48831 17.7816 6.0345 17.3233C5.37 16.6483 4.9635 15.7603 4.7445 15.1438C4.53 14.5303 4.038 13.9753 3.3345 13.7773C3.23823 13.75 3.1535 13.692 3.09315 13.6121C3.03279 13.5323 3.00009 13.4349 3 13.3348V12.1438C2.99992 12.0493 3.03062 11.9574 3.08745 11.8819C3.14428 11.8064 3.22416 11.7514 3.315 11.7253C4.0425 11.5168 4.5285 10.9288 4.734 10.3078C4.902 9.79784 5.199 9.14385 5.682 8.65335C6.23533 8.10093 6.87464 7.64196 7.575 7.29434C7.6335 7.26435 7.68 7.24335 7.71 7.22985L7.74 7.21485L7.746 7.21335C7.881 7.15547 7.99604 7.05924 8.07683 6.93657C8.15763 6.81391 8.20063 6.67023 8.2005 6.52334V4.01234C8.53413 4.29692 8.88478 4.56091 9.2505 4.80284C9.726 5.11484 10.281 5.41035 10.8615 5.56784C11.0325 5.07585 11.2665 4.60784 11.5575 4.17584H11.5485C11.13 4.13234 10.6185 3.90585 10.071 3.54735C9.56927 3.21002 9.09753 2.83012 8.661 2.41185C8.49787 2.25884 8.29402 2.15621 8.07395 2.1163C7.85389 2.07638 7.62698 2.10088 7.4205 2.18684C7.20871 2.27077 7.02693 2.41623 6.89859 2.60445C6.77026 2.79268 6.70126 3.01504 6.7005 3.24284V6.05835C5.93571 6.47058 5.23363 6.98981 4.6155 7.60035C3.9 8.32335 3.5115 9.22635 3.3105 9.83684C3.2265 10.0873 3.0585 10.2388 2.9025 10.2823C2.49844 10.398 2.14303 10.6421 1.89 10.9776C1.63696 11.3132 1.50006 11.7221 1.5 12.1423V13.3348C1.5 14.2123 2.0835 14.9818 2.9265 15.2203C3.02243 15.2537 3.10911 15.3093 3.17949 15.3826C3.24987 15.4558 3.30195 15.5447 3.3315 15.6418C3.5805 16.3498 4.0785 17.4763 4.9665 18.3763C5.67344 19.0909 6.54261 19.6241 7.5 19.9303V20.2498C7.5 20.8466 7.73705 21.4189 8.15901 21.8408C8.58097 22.2628 9.15326 22.4998 9.75 22.4998H10.5C10.8978 22.4998 11.2794 22.3418 11.5607 22.0605C11.842 21.7792 12 21.3977 12 20.9998H15C15 21.3977 15.158 21.7792 15.4393 22.0605C15.7206 22.3418 16.1022 22.4998 16.5 22.4998H17.25C17.8467 22.4998 18.419 22.2628 18.841 21.8408C19.2629 21.4189 19.5 20.8466 19.5 20.2498V18.6853C20 18.3219 20.449 17.8931 20.835 17.4103C21.678 16.3603 22.5 14.7283 22.5 12.4003C22.5 11.4253 22.362 10.5523 22.095 9.77234C21.8276 10.4388 21.443 11.052 20.9595 11.5828ZM20.6865 5.81235C21.0615 6.71722 21.131 7.7197 20.8847 8.6677C20.6384 9.6157 20.0895 10.4575 19.3215 11.0653C18.696 11.5588 17.8395 11.5213 17.1045 11.2153L13.5195 9.73184C12.7845 9.42734 12.1515 8.84835 12.0585 8.05785C11.9339 6.97966 12.2031 5.89277 12.8165 4.99735C13.4299 4.10192 14.3461 3.45826 15.3965 3.18489C16.4469 2.91153 17.5606 3.02687 18.5327 3.50967C19.5047 3.99247 20.2696 4.81023 20.6865 5.81235ZM18.3915 9.88785C18.802 9.56343 19.1207 9.13732 19.3157 8.65178C19.5108 8.16625 19.5755 7.63815 19.5035 7.11987C19.4315 6.60159 19.2253 6.11114 18.9053 5.69715C18.5853 5.28317 18.1626 4.96003 17.6791 4.7598C17.1957 4.55957 16.6683 4.4892 16.1493 4.55567C15.6303 4.62213 15.1377 4.82312 14.7203 5.13871C14.3029 5.4543 13.9753 5.87352 13.7699 6.35478C13.5646 6.83605 13.4886 7.36265 13.5495 7.88235C13.5525 7.91235 13.5645 7.96784 13.6485 8.05634C13.7756 8.18237 13.9272 8.28091 14.094 8.34585L17.679 9.83084C17.8427 9.90397 18.0202 9.9413 18.1995 9.94034C18.3195 9.93734 18.369 9.90584 18.3915 9.88785ZM8.625 11.2498C8.92337 11.2498 9.20952 11.1313 9.4205 10.9203C9.63147 10.7094 9.75 10.4232 9.75 10.1248C9.75 9.82648 9.63147 9.54033 9.4205 9.32935C9.20952 9.11837 8.92337 8.99985 8.625 8.99984C8.32663 8.99985 8.04048 9.11837 7.8295 9.32935C7.61853 9.54033 7.5 9.82648 7.5 10.1248C7.5 10.4232 7.61853 10.7094 7.8295 10.9203C8.04048 11.1313 8.32663 11.2498 8.625 11.2498Z" fill="white"/>
</svg>
