<svg width="26" height="26" viewBox="0 0 26 26" fill="none" xmlns="http://www.w3.org/2000/svg">
<g clip-path="url(#clip0_141_424)">
<path d="M15.2011 20.2009C15.2011 19.6181 14.7242 19.1412 14.1413 19.1412H4.60326V12.7825H23.6793V6.42376C23.6793 5.258 22.7255 4.3042 21.5598 4.3042H4.60326C3.4269 4.3042 2.49429 5.24741 2.49429 6.42376L2.4837 19.1412C2.4837 20.3175 3.4269 21.2607 4.60326 21.2607H14.1413C14.7242 21.2607 15.2011 20.7838 15.2011 20.2009ZM21.5598 8.54333H4.60326V6.42376H21.5598V8.54333ZM21.5598 23.3803C20.9769 23.3803 20.5 22.9034 20.5 22.3205V20.2009H18.3804C17.7976 20.2009 17.3207 19.724 17.3207 19.1412C17.3207 18.5583 17.7976 18.0814 18.3804 18.0814H20.5V15.9618C20.5 15.3789 20.9769 14.902 21.5598 14.902C22.1427 14.902 22.6196 15.3789 22.6196 15.9618V18.0814H24.7391C25.322 18.0814 25.7989 18.5583 25.7989 19.1412C25.7989 19.724 25.322 20.2009 24.7391 20.2009H22.6196V22.3205C22.6196 22.9034 22.1427 23.3803 21.5598 23.3803Z" fill="#412D95"/>
</g>
<defs>
<clipPath id="clip0_141_424">
<rect width="25.4348" height="25.4348" fill="white" transform="translate(0.364136 0.0654297)"/>
</clipPath>
</defs>
</svg>
