<svg width="25" height="24" viewBox="0 0 25 24" fill="none" xmlns="http://www.w3.org/2000/svg">
<g id="carbon:global-loan-and-trial">
<path id="Vector" d="M12 16.5L10.9425 17.5575L12.8775 19.5H3.75V6H2.25V19.5C2.25 20.3273 2.92275 21 3.75 21H12.8775L10.9425 22.9425L12 24L15.75 20.25L12 16.5Z" fill="#222222"/>
<path id="Vector_2" d="M9 12.75C9.41421 12.75 9.75 12.4142 9.75 12C9.75 11.5858 9.41421 11.25 9 11.25C8.58579 11.25 8.25 11.5858 8.25 12C8.25 12.4142 8.58579 12.75 9 12.75Z" fill="#222222"/>
<path id="Vector_3" d="M18.75 15H6.75C5.92275 15 5.25 14.3273 5.25 13.5V10.5C5.25 9.67275 5.92275 9 6.75 9H18.75C19.5773 9 20.25 9.67275 20.25 10.5V13.5C20.25 14.3273 19.5773 15 18.75 15ZM6.75 10.5V13.5H18.75V10.5H6.75Z" fill="#222222"/>
<path id="Vector_4" d="M21.75 3H12.6225L14.5575 1.0575L13.5 0L9.75 3.75L13.5 7.5L14.5575 6.4425L12.6225 4.5H21.75V18H23.25V4.5C23.25 3.67275 22.5773 3 21.75 3Z" fill="#222222"/>
</g>
</svg>
