<svg width="21" height="20" viewBox="0 0 21 20" fill="none" xmlns="http://www.w3.org/2000/svg">
<path id="Vector" d="M20.0833 7.99984H19.4167V3.99984C19.4167 3.82303 19.3464 3.65346 19.2214 3.52843C19.0964 3.40341 18.9268 3.33317 18.75 3.33317H2.75C2.59214 3.33575 2.43849 3.28221 2.31641 3.1821C2.19432 3.082 2.11173 2.94181 2.08333 2.7865V2.5465C2.11173 2.3912 2.19432 2.25101 2.31641 2.1509C2.43849 2.05079 2.59214 1.99726 2.75 1.99984H18.47C18.6468 1.99984 18.8164 1.9296 18.9414 1.80457C19.0664 1.67955 19.1367 1.50998 19.1367 1.33317C19.1367 1.15636 19.0664 0.98679 18.9414 0.861766C18.8164 0.736742 18.6468 0.666504 18.47 0.666504H2.75C2.21957 0.666504 1.71086 0.877218 1.33579 1.25229C0.960714 1.62736 0.75 2.13607 0.75 2.6665C0.745321 2.74644 0.745321 2.82657 0.75 2.9065V16.6198C0.752617 16.9788 0.825911 17.3337 0.965697 17.6643C1.10548 17.995 1.30902 18.2948 1.5647 18.5468C1.82037 18.7987 2.12317 18.9978 2.4558 19.1328C2.78843 19.2677 3.14438 19.3358 3.50333 19.3332H18.75C18.9268 19.3332 19.0964 19.2629 19.2214 19.1379C19.3464 19.0129 19.4167 18.8433 19.4167 18.6665V14.6665H20.0833C20.2601 14.6665 20.4297 14.5963 20.5547 14.4712C20.6798 14.3462 20.75 14.1766 20.75 13.9998V8.6665C20.75 8.48969 20.6798 8.32012 20.5547 8.1951C20.4297 8.07008 20.2601 7.99984 20.0833 7.99984ZM18.0833 17.9998H3.50333C3.13253 18.0034 2.77532 17.8604 2.50939 17.602C2.24347 17.3436 2.09035 16.9906 2.08333 16.6198V4.5865C2.29973 4.64922 2.52491 4.67624 2.75 4.6665H18.0833V7.99984H13.4167C12.5326 7.99984 11.6848 8.35103 11.0596 8.97615C10.4345 9.60127 10.0833 10.4491 10.0833 11.3332C10.0833 12.2172 10.4345 13.0651 11.0596 13.6902C11.6848 14.3153 12.5326 14.6665 13.4167 14.6665H18.0833V17.9998ZM19.4167 13.3332H13.4167C12.8862 13.3332 12.3775 13.1225 12.0025 12.7474C11.6274 12.3723 11.4167 11.8636 11.4167 11.3332C11.4167 10.8027 11.6274 10.294 12.0025 9.91896C12.3775 9.54388 12.8862 9.33317 13.4167 9.33317H19.4167V13.3332Z" fill="#222222"/>
</svg>
