<svg width="22" height="21" viewBox="0 0 22 21" fill="none" xmlns="http://www.w3.org/2000/svg">
<path id="Vector" fill-rule="evenodd" clip-rule="evenodd" d="M15.25 1.5V3.19L17.25 4.79V1.5H15.25ZM18.75 5.99V1.25C18.75 0.56 18.19 0 17.5 0H15C14.31 0 13.75 0.56 13.75 1.25V1.99L13.343 1.664C12.678 1.13186 11.8517 0.841943 11 0.841943C10.1483 0.841943 9.32199 1.13186 8.657 1.664L0.532 8.164C0.376583 8.28825 0.276891 8.46916 0.254856 8.66691C0.23282 8.86467 0.290246 9.06308 0.4145 9.2185C0.538754 9.37392 0.719658 9.47361 0.917415 9.49564C1.11517 9.51768 1.31358 9.46025 1.469 9.336L2.25 8.71V19H1C0.801088 19 0.610322 19.079 0.46967 19.2197C0.329018 19.3603 0.25 19.5511 0.25 19.75C0.25 19.9489 0.329018 20.1397 0.46967 20.2803C0.610322 20.421 0.801088 20.5 1 20.5H21C21.1989 20.5 21.3897 20.421 21.5303 20.2803C21.671 20.1397 21.75 19.9489 21.75 19.75C21.75 19.5511 21.671 19.3603 21.5303 19.2197C21.3897 19.079 21.1989 19 21 19H19.75V8.71L20.532 9.336C20.6877 9.45732 20.8849 9.51238 21.0809 9.48925C21.2769 9.46612 21.4559 9.36667 21.5791 9.21245C21.7022 9.05823 21.7596 8.86168 21.7388 8.66542C21.7181 8.46915 21.6207 8.28899 21.468 8.164L18.75 5.99ZM18.25 7.51L12.406 2.835C12.007 2.51562 11.5111 2.34161 11 2.34161C10.4889 2.34161 9.99302 2.51562 9.594 2.835L3.75 7.51V19H7.25V14.7C7.25 14.036 7.25 13.463 7.312 13.004C7.378 12.512 7.527 12.041 7.909 11.659C8.291 11.277 8.763 11.128 9.254 11.062C9.713 11 10.286 11 10.951 11H11.049C11.714 11 12.287 11 12.746 11.062C13.238 11.128 13.709 11.277 14.091 11.659C14.473 12.041 14.622 12.512 14.688 13.004C14.75 13.463 14.75 14.036 14.75 14.701V19H18.25V7.51ZM13.25 19V14.75C13.25 14.022 13.248 13.55 13.202 13.204C13.158 12.879 13.088 12.777 13.03 12.72C12.973 12.663 12.871 12.592 12.546 12.548C12.199 12.502 11.728 12.5 11 12.5C10.272 12.5 9.8 12.502 9.454 12.548C9.129 12.592 9.027 12.663 8.97 12.72C8.913 12.777 8.842 12.879 8.798 13.204C8.752 13.551 8.75 14.022 8.75 14.75V19H13.25ZM11 6C10.8358 6 10.6733 6.03233 10.5216 6.09515C10.37 6.15797 10.2322 6.25004 10.1161 6.36612C10 6.48219 9.90797 6.61999 9.84515 6.77165C9.78233 6.9233 9.75 7.08585 9.75 7.25C9.75 7.41415 9.78233 7.5767 9.84515 7.72835C9.90797 7.88001 10 8.01781 10.1161 8.13388C10.2322 8.24996 10.37 8.34203 10.5216 8.40485C10.6733 8.46767 10.8358 8.5 11 8.5C11.3315 8.5 11.6495 8.3683 11.8839 8.13388C12.1183 7.89946 12.25 7.58152 12.25 7.25C12.25 6.91848 12.1183 6.60054 11.8839 6.36612C11.6495 6.1317 11.3315 6 11 6ZM8.25 7.25C8.25 6.52065 8.53973 5.82118 9.05546 5.30546C9.57118 4.78973 10.2707 4.5 11 4.5C11.7293 4.5 12.4288 4.78973 12.9445 5.30546C13.4603 5.82118 13.75 6.52065 13.75 7.25C13.75 7.97935 13.4603 8.67882 12.9445 9.19454C12.4288 9.71027 11.7293 10 11 10C10.2707 10 9.57118 9.71027 9.05546 9.19454C8.53973 8.67882 8.25 7.97935 8.25 7.25Z" fill="#222222"/>
</svg>
