<svg width="33" height="27" viewBox="0 0 33 27" fill="none" xmlns="http://www.w3.org/2000/svg">
<g clip-path="url(#clip0_141_417)">
<path d="M12.1614 2.9375H20.9996V18.8184H12.1614V2.9375Z" fill="#FF5F00"/>
<path d="M12.7224 10.8783C12.7224 7.65164 14.2375 4.78965 16.5663 2.93777C14.8549 1.591 12.6944 0.777344 10.3376 0.777344C4.75381 0.777344 0.236511 5.29464 0.236511 10.8783C0.236511 16.4618 4.75381 20.9792 10.3374 20.9792C12.6943 20.9792 14.8547 20.1656 16.5663 18.8187C14.2375 16.9949 12.7224 14.1049 12.7224 10.8783Z" fill="#EB001B"/>
<path d="M32.9243 10.8783C32.9243 16.4618 28.407 20.9792 22.8234 20.9792C20.4665 20.9792 18.3061 20.1656 16.5946 18.8187C18.9514 16.9669 20.4385 14.1049 20.4385 10.8783C20.4385 7.65164 18.9233 4.78965 16.5946 2.93777C18.306 1.591 20.4665 0.777344 22.8234 0.777344C28.407 0.777344 32.9243 5.32276 32.9243 10.8783Z" fill="#F79E1B"/>
</g>
<defs>
<clipPath id="clip0_141_417">
<rect width="32.7261" height="25.4348" fill="white" transform="translate(0.233696 0.777344)"/>
</clipPath>
</defs>
</svg>
