<svg width="29" height="28" viewBox="0 0 29 28" fill="none" xmlns="http://www.w3.org/2000/svg">
<g id="Logo">
<g id="Group 1">
<path id="Union" fill-rule="evenodd" clip-rule="evenodd" d="M28.913 0.961466C29.0822 0.687528 28.9972 0.328364 28.7232 0.159251C28.4493 -0.00986268 28.0901 0.0751149 27.921 0.349053C25.6039 4.10241 23.0917 5.94042 20.5818 6.89362C18.2458 7.78076 15.8825 7.91746 13.5465 8.05257C13.3423 8.06438 13.1384 8.07617 12.9347 8.08846L12.9828 8.88634C12.9743 8.88788 12.9698 8.88868 12.9698 8.88868C12.8115 10.9049 12.7275 13.9268 12.6448 16.9003C12.5373 20.7684 12.432 24.5547 12.1683 25.9389C11.702 28.3871 13.0913 28.1248 13.8442 27.6876C14.4757 26.4247 16.001 22.9952 17.0502 19.3811C18.0162 16.0538 18.0064 18.2974 17.9988 20.039C17.9981 20.1891 17.9975 20.3354 17.9975 20.4741C17.9975 21.6021 17.833 22.3528 17.3937 24.3579C17.2938 24.8137 17.1798 25.3343 17.0502 25.9389C17.0502 27.8791 17.7367 27.3848 18.3117 26.5884C18.2557 26.6978 18.3235 26.5924 18.4469 26.3928C18.5474 26.2416 18.6421 26.086 18.7261 25.9389C18.6865 26.0033 18.6476 26.0666 18.6104 26.1272C18.5502 26.2251 18.4945 26.316 18.4469 26.3928C18.4028 26.4592 18.3576 26.5247 18.3117 26.5884C18.4172 26.3823 18.9619 25.4143 20.402 22.8786C23.3298 17.7231 22.9503 8.91871 22.3454 7.38739C24.6431 6.22123 26.8717 4.26817 28.913 0.961466Z" fill="#955FAE"/>
<path id="Vector 5" d="M22.515 7.86865L21.2763 9.10734" stroke="#CE8CC1" stroke-width="1.16583" stroke-linecap="round"/>
<path id="Vector 6" d="M22.2964 7.6499L21.3492 8.67" stroke="url(#paint0_linear_112_1219)" stroke-opacity="0.5" stroke-width="0.145728" stroke-linecap="round"/>
<path id="Vector 3" d="M28.3441 0.36377C27.1064 2.7637 23.5142 7.27946 18.5804 7.94164" stroke="url(#paint1_linear_112_1219)" stroke-opacity="0.5" stroke-width="0.145728" stroke-linecap="round"/>
<circle id="Ellipse 1" cx="17.706" cy="2.8417" r="2.8417" fill="#955FAE"/>
<path id="Vector 4" d="M19.5276 3.20533C19.411 3.55507 17.1474 3.83682 16.0301 3.93397C16.3944 4.32258 17.3708 5.07065 18.3618 4.95407C19.6005 4.80834 19.6733 2.76814 19.5276 3.20533Z" fill="#694C76"/>
<path id="Ellipse 2" d="M19.2361 1.38429C19.2361 1.74647 18.9425 2.04007 18.5803 2.04007C18.2182 2.04007 17.7788 1.52788 17.7788 1.1657C17.7788 0.803525 18.2182 0.728516 18.5803 0.728516C18.9425 0.728516 19.2361 1.02212 19.2361 1.38429Z" fill="#C695DD"/>
</g>
<g id="Group 2">
<path id="Union_2" fill-rule="evenodd" clip-rule="evenodd" d="M0.086977 0.961466C-0.0821362 0.687528 0.00284195 0.328364 0.276779 0.159251C0.550718 -0.00986268 0.909882 0.0751149 1.07899 0.349053C3.39609 4.10241 5.90828 5.94042 8.41824 6.89362C10.7542 7.78076 13.1176 7.91746 15.4535 8.05257C15.6577 8.06438 15.8616 8.07617 16.0653 8.08846L16.0172 8.88634C16.0257 8.88788 16.0302 8.88868 16.0302 8.88868C16.1885 10.9049 16.2725 13.9268 16.3552 16.9003C16.4628 20.7684 16.568 24.5547 16.8317 25.9389C17.298 28.3871 15.9087 28.1248 15.1558 27.6876C14.5243 26.4247 12.999 22.9952 11.9498 19.3811C10.9838 16.0538 10.9936 18.2974 11.0013 20.039C11.0019 20.1891 11.0026 20.3354 11.0026 20.4741C11.0026 21.6021 11.167 22.3528 11.6063 24.3579C11.7062 24.8137 11.8202 25.3343 11.9498 25.9389C11.9498 27.8791 11.2634 27.3848 10.6883 26.5884C10.7444 26.6978 10.6765 26.5924 10.5531 26.3928C10.4526 26.2416 10.358 26.086 10.2739 25.9389C10.3135 26.0033 10.3524 26.0666 10.3896 26.1272C10.4498 26.2251 10.5055 26.316 10.5531 26.3928C10.5972 26.4592 10.6424 26.5247 10.6883 26.5884C10.5829 26.3823 10.0381 25.4143 8.59804 22.8786C5.67021 17.7231 6.04975 8.91871 6.65461 7.38739C4.35693 6.22123 2.12834 4.26817 0.086977 0.961466Z" fill="#CE8CC1"/>
<path id="Vector 5_2" d="M6.485 7.86865L7.72369 9.10734" stroke="#955FAE" stroke-width="1.16583" stroke-linecap="round"/>
<path id="Vector 6_2" d="M6.7036 7.6499L7.65083 8.67" stroke="url(#paint2_linear_112_1219)" stroke-opacity="0.5" stroke-width="0.145728" stroke-linecap="round"/>
<path id="Vector 3_2" d="M0.65587 0.36377C1.89357 2.7637 5.48578 7.27946 10.4197 7.94164" stroke="url(#paint3_linear_112_1219)" stroke-opacity="0.5" stroke-width="0.145728" stroke-linecap="round"/>
<circle id="Ellipse 1_2" cx="2.8417" cy="2.8417" r="2.8417" transform="matrix(-1 0 0 1 14.1357 0)" fill="#CE8CC1"/>
<path id="Vector 4_2" d="M9.47243 3.20533C9.58901 3.55507 11.8527 3.83682 12.9699 3.93397C12.6056 4.32258 11.6292 5.07065 10.6383 4.95407C9.39957 4.80834 9.3267 2.76814 9.47243 3.20533Z" fill="#9D4D8D"/>
<path id="Ellipse 2_2" d="M9.76389 1.38429C9.76389 1.74647 10.0575 2.04007 10.4197 2.04007C10.7818 2.04007 11.2212 1.52788 11.2212 1.1657C11.2212 0.803525 10.7818 0.728516 10.4197 0.728516C10.0575 0.728516 9.76389 1.02212 9.76389 1.38429Z" fill="#E8B7DE"/>
</g>
</g>
<defs>
<linearGradient id="paint0_linear_112_1219" x1="21.8228" y1="7.6499" x2="21.8228" y2="8.67" gradientUnits="userSpaceOnUse">
<stop stop-color="#EBD0E6"/>
<stop offset="1" stop-color="#EBD0E6" stop-opacity="0"/>
</linearGradient>
<linearGradient id="paint1_linear_112_1219" x1="23.4622" y1="0.36377" x2="23.4622" y2="7.94164" gradientUnits="userSpaceOnUse">
<stop stop-color="#EBD0E6"/>
<stop offset="1" stop-color="#EBD0E6" stop-opacity="0"/>
</linearGradient>
<linearGradient id="paint2_linear_112_1219" x1="7.17722" y1="7.6499" x2="7.17722" y2="8.67" gradientUnits="userSpaceOnUse">
<stop stop-color="#EBD0E6"/>
<stop offset="1" stop-color="#EBD0E6" stop-opacity="0"/>
</linearGradient>
<linearGradient id="paint3_linear_112_1219" x1="5.53777" y1="0.36377" x2="5.53777" y2="7.94164" gradientUnits="userSpaceOnUse">
<stop stop-color="#EBD0E6"/>
<stop offset="1" stop-color="#EBD0E6" stop-opacity="0"/>
</linearGradient>
</defs>
</svg>
