<svg width="22" height="21" viewBox="0 0 22 21" fill="none" xmlns="http://www.w3.org/2000/svg">
<path d="M19.9595 9.58284C19.9865 9.84235 20 10.1138 20 10.4003C20 12.3458 19.322 13.6538 18.665 14.4728C18.3997 14.8054 18.0961 15.1055 17.7605 15.3668C17.647 15.4543 17.5289 15.5354 17.4065 15.6098L17.393 15.6173C17.2741 15.6817 17.1748 15.777 17.1056 15.8932C17.0364 16.0094 16.9999 16.1421 17 16.2773V18.2498C17 18.4488 16.921 18.6395 16.7803 18.7802C16.6397 18.9208 16.4489 18.9998 16.25 18.9998H15.5C15.5 18.602 15.342 18.2205 15.0607 17.9392C14.7794 17.6579 14.3978 17.4998 14 17.4998H11C10.6022 17.4998 10.2206 17.6579 9.93934 17.9392C9.65804 18.2205 9.5 18.602 9.5 18.9998H8.75C8.55109 18.9998 8.36032 18.9208 8.21967 18.7802C8.07902 18.6395 8 18.4488 8 18.2498V17.3453C8.00019 17.1593 7.93121 16.9798 7.80647 16.8418C7.68173 16.7037 7.51013 16.617 7.325 16.5983C7.08733 16.5467 6.85449 16.475 6.629 16.3838C6.03088 16.1425 5.48831 15.7816 5.0345 15.3233C4.37 14.6483 3.9635 13.7603 3.7445 13.1438C3.53 12.5303 3.038 11.9753 2.3345 11.7773C2.23823 11.75 2.1535 11.692 2.09315 11.6121C2.03279 11.5323 2.00009 11.4349 2 11.3348V10.1438C1.99992 10.0493 2.03062 9.95738 2.08745 9.88187C2.14428 9.80636 2.22416 9.75142 2.315 9.72534C3.0425 9.51684 3.5285 8.92885 3.734 8.30785C3.902 7.79784 4.199 7.14385 4.682 6.65335C5.23533 6.10093 5.87464 5.64196 6.575 5.29434C6.6335 5.26435 6.68 5.24335 6.71 5.22985L6.74 5.21485L6.746 5.21335C6.881 5.15547 6.99604 5.05924 7.07683 4.93657C7.15763 4.81391 7.20063 4.67023 7.2005 4.52334V2.01234C7.53413 2.29692 7.88478 2.56091 8.2505 2.80284C8.726 3.11484 9.281 3.41035 9.8615 3.56784C10.0325 3.07585 10.2665 2.60784 10.5575 2.17584H10.5485C10.13 2.13234 9.6185 1.90585 9.071 1.54735C8.56927 1.21002 8.09753 0.830121 7.661 0.411845C7.49787 0.25884 7.29402 0.156211 7.07395 0.116296C6.85389 0.0763804 6.62698 0.100879 6.4205 0.186845C6.20871 0.270774 6.02693 0.416231 5.89859 0.604455C5.77026 0.792679 5.70126 1.01504 5.7005 1.24284V4.05835C4.93571 4.47058 4.23363 4.98981 3.6155 5.60035C2.9 6.32335 2.5115 7.22635 2.3105 7.83684C2.2265 8.08735 2.0585 8.23884 1.9025 8.28234C1.49844 8.398 1.14303 8.64207 0.889996 8.97765C0.63696 9.31322 0.500062 9.72206 0.5 10.1423V11.3348C0.5 12.2123 1.0835 12.9818 1.9265 13.2203C2.02243 13.2537 2.10911 13.3093 2.17949 13.3826C2.24987 13.4558 2.30195 13.5447 2.3315 13.6418C2.5805 14.3498 3.0785 15.4763 3.9665 16.3763C4.67344 17.0909 5.54261 17.6241 6.5 17.9303V18.2498C6.5 18.8466 6.73705 19.4189 7.15901 19.8408C7.58097 20.2628 8.15326 20.4998 8.75 20.4998H9.5C9.89782 20.4998 10.2794 20.3418 10.5607 20.0605C10.842 19.7792 11 19.3977 11 18.9998H14C14 19.3977 14.158 19.7792 14.4393 20.0605C14.7206 20.3418 15.1022 20.4998 15.5 20.4998H16.25C16.8467 20.4998 17.419 20.2628 17.841 19.8408C18.2629 19.4189 18.5 18.8466 18.5 18.2498V16.6853C19 16.3219 19.449 15.8931 19.835 15.4103C20.678 14.3603 21.5 12.7283 21.5 10.4003C21.5 9.42535 21.362 8.55234 21.095 7.77234C20.8276 8.43879 20.443 9.05196 19.9595 9.58284ZM19.6865 3.81235C20.0615 4.71722 20.131 5.7197 19.8847 6.6677C19.6384 7.6157 19.0895 8.45748 18.3215 9.06534C17.696 9.55884 16.8395 9.52135 16.1045 9.21535L12.5195 7.73184C11.7845 7.42734 11.1515 6.84835 11.0585 6.05785C10.9339 4.97966 11.2031 3.89277 11.8165 2.99735C12.4299 2.10192 13.3461 1.45826 14.3965 1.18489C15.4469 0.911526 16.5606 1.02687 17.5327 1.50967C18.5047 1.99247 19.2696 2.81023 19.6865 3.81235ZM17.3915 7.88785C17.802 7.56343 18.1207 7.13732 18.3157 6.65178C18.5108 6.16625 18.5755 5.63815 18.5035 5.11987C18.4315 4.60159 18.2253 4.11114 17.9053 3.69715C17.5853 3.28317 17.1626 2.96003 16.6791 2.7598C16.1957 2.55957 15.6683 2.4892 15.1493 2.55567C14.6303 2.62213 14.1377 2.82312 13.7203 3.13871C13.3029 3.4543 12.9753 3.87352 12.7699 4.35478C12.5646 4.83605 12.4886 5.36265 12.5495 5.88235C12.5525 5.91235 12.5645 5.96784 12.6485 6.05634C12.7756 6.18237 12.9272 6.28091 13.094 6.34585L16.679 7.83084C16.8427 7.90397 17.0202 7.9413 17.1995 7.94034C17.3195 7.93734 17.369 7.90584 17.3915 7.88785ZM7.625 9.24984C7.92337 9.24984 8.20952 9.13132 8.4205 8.92034C8.63147 8.70936 8.75 8.42321 8.75 8.12484C8.75 7.82648 8.63147 7.54033 8.4205 7.32935C8.20952 7.11837 7.92337 6.99985 7.625 6.99984C7.32663 6.99985 7.04048 7.11837 6.8295 7.32935C6.61853 7.54033 6.5 7.82648 6.5 8.12484C6.5 8.42321 6.61853 8.70936 6.8295 8.92034C7.04048 9.13132 7.32663 9.24984 7.625 9.24984Z" fill="white"/>
</svg>
