<svg width="24" height="24" viewBox="0 0 24 24" fill="none" xmlns="http://www.w3.org/2000/svg">
<path d="M18.3 13.2002C17.9022 13.2002 17.5206 13.0422 17.2393 12.7609C16.958 12.4796 16.8 12.098 16.8 11.7002C16.8 11.3024 16.958 10.9208 17.2393 10.6395C17.5206 10.3582 17.9022 10.2002 18.3 10.2002C18.6978 10.2002 19.0794 10.3582 19.3607 10.6395C19.642 10.9208 19.8 11.3024 19.8 11.7002C19.8 12.098 19.642 12.4796 19.3607 12.7609C19.0794 13.0422 18.6978 13.2002 18.3 13.2002ZM12.3 13.2002C11.9022 13.2002 11.5206 13.0422 11.2393 12.7609C10.958 12.4796 10.8 12.098 10.8 11.7002C10.8 11.3024 10.958 10.9208 11.2393 10.6395C11.5206 10.3582 11.9022 10.2002 12.3 10.2002C12.6978 10.2002 13.0794 10.3582 13.3607 10.6395C13.642 10.9208 13.8 11.3024 13.8 11.7002C13.8 12.098 13.642 12.4796 13.3607 12.7609C13.0794 13.0422 12.6978 13.2002 12.3 13.2002ZM6.3 13.2002C5.90218 13.2002 5.52065 13.0422 5.23934 12.7609C4.95804 12.4796 4.8 12.098 4.8 11.7002C4.8 11.3024 4.95804 10.9208 5.23934 10.6395C5.52065 10.3582 5.90218 10.2002 6.3 10.2002C6.69783 10.2002 7.07936 10.3582 7.36066 10.6395C7.64197 10.9208 7.8 11.3024 7.8 11.7002C7.8 12.098 7.64197 12.4796 7.36066 12.7609C7.07936 13.0422 6.69783 13.2002 6.3 13.2002Z" fill="#414141"/>
</svg>
