<svg width="24" height="24" viewBox="0 0 24 24" fill="none" xmlns="http://www.w3.org/2000/svg">
<path d="M14 10L3 21M14 10L10.5 3C10.4561 2.90426 10.3857 2.82313 10.297 2.76625C10.2084 2.70937 10.1053 2.67913 10 2.67913C9.89468 2.67913 9.79158 2.70937 9.70295 2.76625C9.61431 2.82313 9.54387 2.90426 9.5 3L3 21M14 10L21 13.5C21.0957 13.5439 21.1769 13.6143 21.2338 13.7029C21.2906 13.7916 21.3209 13.8947 21.3209 14C21.3209 14.1053 21.2906 14.2084 21.2338 14.2971C21.1769 14.3857 21.0957 14.4561 21 14.5L3 21" stroke="white" stroke-width="2" stroke-linecap="round" stroke-linejoin="round"/>
</svg>
