<svg width="20" height="21" viewBox="0 0 20 21" fill="none" xmlns="http://www.w3.org/2000/svg">
<path d="M19 19.9868L13 13.9868M1 8.98682C1 9.90607 1.18106 10.8163 1.53284 11.6656C1.88463 12.5149 2.40024 13.2866 3.05025 13.9366C3.70026 14.5866 4.47194 15.1022 5.32122 15.454C6.1705 15.8058 7.08075 15.9868 8 15.9868C8.91925 15.9868 9.82951 15.8058 10.6788 15.454C11.5281 15.1022 12.2997 14.5866 12.9497 13.9366C13.5998 13.2866 14.1154 12.5149 14.4672 11.6656C14.8189 10.8163 15 9.90607 15 8.98682C15 8.06756 14.8189 7.15731 14.4672 6.30803C14.1154 5.45875 13.5998 4.68708 12.9497 4.03707C12.2997 3.38706 11.5281 2.87144 10.6788 2.51966C9.82951 2.16788 8.91925 1.98682 8 1.98682C7.08075 1.98682 6.1705 2.16788 5.32122 2.51966C4.47194 2.87144 3.70026 3.38706 3.05025 4.03707C2.40024 4.68708 1.88463 5.45875 1.53284 6.30803C1.18106 7.15731 1 8.06756 1 8.98682Z" stroke="#828282" stroke-width="2" stroke-linecap="round" stroke-linejoin="round"/>
</svg>
