<svg width="25" height="24" viewBox="0 0 25 24" fill="none" xmlns="http://www.w3.org/2000/svg">
<path d="M10.5 14L21.5 3M10.5 14L14 21C14.0439 21.0957 14.1143 21.1769 14.2029 21.2338C14.2916 21.2906 14.3947 21.3209 14.5 21.3209C14.6053 21.3209 14.7084 21.2906 14.797 21.2338C14.8857 21.1769 14.9561 21.0957 15 21L21.5 3M10.5 14L3.49999 10.5C3.40425 10.4561 3.32312 10.3857 3.26624 10.2971C3.20936 10.2084 3.17912 10.1053 3.17912 10C3.17912 9.89468 3.20936 9.79158 3.26624 9.70295C3.32312 9.61431 3.40425 9.54387 3.49999 9.5L21.5 3" stroke="white" stroke-width="2" stroke-linecap="round" stroke-linejoin="round"/>
</svg>
