<svg width="24" height="24" viewBox="0 0 24 24" fill="none" xmlns="http://www.w3.org/2000/svg">
<path fill-rule="evenodd" clip-rule="evenodd" d="M6.28571 4H17.7143C18.3205 4 18.9019 4.24082 19.3305 4.66947C19.7592 5.09812 20 5.67951 20 6.28571V17.7143C20 18.3205 19.7592 18.9019 19.3305 19.3305C18.9019 19.7592 18.3205 20 17.7143 20H6.28571C5.67951 20 5.09812 19.7592 4.66947 19.3305C4.24082 18.9019 4 18.3205 4 17.7143V6.28571C4 5.67951 4.24082 5.09812 4.66947 4.66947C5.09812 4.24082 5.67951 4 6.28571 4Z" stroke="#222222" stroke-width="1.14286" stroke-linecap="round" stroke-linejoin="round"/>
<path d="M20 15.4286L16.5714 12.0001L13.1429 15.4115M17.7143 20.0001L7.42857 9.71436L4 13.1429" stroke="#222222" stroke-width="1.14286" stroke-linecap="round" stroke-linejoin="round"/>
<path d="M16 9.14265C16.6312 9.14265 17.1429 8.63097 17.1429 7.99979C17.1429 7.36861 16.6312 6.85693 16 6.85693C15.3688 6.85693 14.8571 7.36861 14.8571 7.99979C14.8571 8.63097 15.3688 9.14265 16 9.14265Z" fill="#222222"/>
<rect x="0.5" y="0.5" width="23" height="23" rx="4.5" stroke="#C2C2C2"/>
</svg>
