<svg width="24" height="24" viewBox="0 0 24 24" fill="none" xmlns="http://www.w3.org/2000/svg">
<path d="M6.28571 7.42871H13.1429C13.7491 7.42871 14.3304 7.66953 14.7591 8.09818C15.1878 8.52684 15.4286 9.10822 15.4286 9.71443V14.2859C15.4286 14.8921 15.1878 15.4734 14.7591 15.9021C14.3304 16.3308 13.7491 16.5716 13.1429 16.5716H6.28571C5.67951 16.5716 5.09812 16.3308 4.66947 15.9021C4.24082 15.4734 4 14.8921 4 14.2859V9.71443C4 9.10822 4.24082 8.52684 4.66947 8.09818C5.09812 7.66953 5.67951 7.42871 6.28571 7.42871ZM15.4286 10.8573L18.1714 8.80014C18.3412 8.67279 18.5431 8.59525 18.7545 8.57619C18.9659 8.55713 19.1784 8.59731 19.3682 8.69222C19.5581 8.78714 19.7177 8.93305 19.8293 9.11359C19.9409 9.29413 20 9.50218 20 9.71443V14.2859C20 14.4981 19.9409 14.7061 19.8293 14.8867C19.7177 15.0672 19.5581 15.2131 19.3682 15.3081C19.1784 15.403 18.9659 15.4432 18.7545 15.4241C18.5431 15.405 18.3412 15.3275 18.1714 15.2001L15.4286 13.143V10.8573Z" stroke="#222222" stroke-width="1.14286" stroke-linecap="round" stroke-linejoin="round"/>
<rect x="0.5" y="0.5" width="23" height="23" rx="4.5" stroke="#C2C2C2"/>
</svg>
