<svg width="19" height="17" viewBox="0 0 19 17" fill="none" xmlns="http://www.w3.org/2000/svg">
<path d="M17.5753 6.60877H16.9866V3.07616C16.9866 2.92001 16.9245 2.77026 16.8141 2.65984C16.7037 2.54943 16.5539 2.4874 16.3978 2.4874H2.26736C2.12795 2.48967 1.99225 2.44239 1.88443 2.35398C1.77661 2.26557 1.70367 2.14176 1.67859 2.00461V1.79265C1.70367 1.65549 1.77661 1.53169 1.88443 1.44327C1.99225 1.35486 2.12795 1.30759 2.26736 1.30986H16.1505C16.3067 1.30986 16.4564 1.24783 16.5668 1.13741C16.6772 1.027 16.7393 0.877243 16.7393 0.721092C16.7393 0.564941 16.6772 0.415186 16.5668 0.304771C16.4564 0.194355 16.3067 0.132324 16.1505 0.132324H2.26736C1.79891 0.132324 1.34964 0.318417 1.01839 0.649663C0.687147 0.980909 0.501055 1.43018 0.501055 1.89863C0.496922 1.96922 0.496922 2.03999 0.501055 2.11059V14.2215C0.503366 14.5386 0.568096 14.852 0.691548 15.144C0.815 15.436 0.994757 15.7008 1.22056 15.9233C1.44635 16.1458 1.71377 16.3217 2.00753 16.4409C2.3013 16.56 2.61566 16.6202 2.93267 16.6178H16.3978C16.5539 16.6178 16.7037 16.5558 16.8141 16.4454C16.9245 16.335 16.9866 16.1852 16.9866 16.0291V12.4965H17.5753C17.7315 12.4965 17.8812 12.4344 17.9917 12.324C18.1021 12.2136 18.1641 12.0638 18.1641 11.9077V7.19754C18.1641 7.04139 18.1021 6.89164 17.9917 6.78122C17.8812 6.6708 17.7315 6.60877 17.5753 6.60877ZM15.809 15.4403H2.93267C2.6052 15.4435 2.28972 15.3172 2.05487 15.089C1.82002 14.8607 1.68478 14.549 1.67859 14.2215V3.59428C1.8697 3.64967 2.06857 3.67353 2.26736 3.66493H15.809V6.60877H11.6876C10.9069 6.60877 10.1581 6.91893 9.60604 7.471C9.05396 8.02308 8.74381 8.77186 8.74381 9.55261C8.74381 10.3334 9.05396 11.0821 9.60604 11.6342C10.1581 12.1863 10.9069 12.4965 11.6876 12.4965H15.809V15.4403ZM16.9866 11.3189H11.6876C11.2192 11.3189 10.7699 11.1328 10.4387 10.8016C10.1074 10.4703 9.92134 10.0211 9.92134 9.55261C9.92134 9.08416 10.1074 8.63489 10.4387 8.30365C10.7699 7.9724 11.2192 7.78631 11.6876 7.78631H16.9866V11.3189Z" fill="white"/>
</svg>
